<svg width="42" height="38" viewBox="0 0 42 38" fill="none" xmlns="http://www.w3.org/2000/svg">
<path d="M0.999756 16.001C0.999756 7.71671 7.71549 1.00098 15.9998 1.00098H25.9998C34.284 1.00098 40.9998 7.71671 40.9998 16.001V22.001C40.9998 30.2852 34.284 37.001 25.9998 37.001H15.9998C7.71549 37.001 0.999756 30.2852 0.999756 22.001V16.001Z" fill="#102130"/>
<rect x="12.9998" y="12.001" width="16" height="15" rx="2" stroke="white"/>
<path d="M12.9998 14.001C12.9998 12.8964 13.8952 12.001 14.9998 12.001H26.9998C28.1043 12.001 28.9998 12.8964 28.9998 14.001V15.001H12.9998V14.001Z" fill="white" stroke="white"/>
<path d="M15.9998 1.50098H25.9998V0.500977H15.9998V1.50098ZM40.4998 16.001V22.001H41.4998V16.001H40.4998ZM25.9998 36.501H15.9998V37.501H25.9998V36.501ZM1.49976 22.001V16.001H0.499756V22.001H1.49976ZM15.9998 36.501C7.99163 36.501 1.49976 30.0091 1.49976 22.001H0.499756C0.499756 30.5614 7.43934 37.501 15.9998 37.501V36.501ZM40.4998 22.001C40.4998 30.0091 34.0079 36.501 25.9998 36.501V37.501C34.5602 37.501 41.4998 30.5614 41.4998 22.001H40.4998ZM25.9998 1.50098C34.0079 1.50098 40.4998 7.99285 40.4998 16.001H41.4998C41.4998 7.44056 34.5602 0.500977 25.9998 0.500977V1.50098ZM15.9998 0.500977C7.43934 0.500977 0.499756 7.44056 0.499756 16.001H1.49976C1.49976 7.99285 7.99163 1.50098 15.9998 1.50098V0.500977Z" fill="#FF4654"/>
</svg>
